<svg viewBox="502.8961 421.3873 524.2078 108.2254" width="5000" height="1032.2757501891424" xmlns="http://www.w3.org/2000/svg" xmlns:xlink="http://www.w3.org/1999/xlink" preserveAspectRatio="none"><defs></defs><style>.aD6z1nYkhcolor {fill:#FFFFFF;fill-opacity:1;}.aD6z1nYkhstrokeColor-str {stroke:#D9D9D9;stroke-opacity:1;}.aU4AVQF7bscolors-0 {fill:#FFFFFF;fill-opacity:1;}</style><g opacity="1" transform="rotate(0 633.8961 421.3873)">
<svg width="393.2078" height="108.2254" x="633.8961" y="421.3873" version="1.1" preserveAspectRatio="none" viewBox="1.72 -25.56 210 57.8">
  <g transform="matrix(1 0 0 1 0 0)" class="aD6z1nYkhcolor"><path id="id-D6z1nYkh13" d="M13.72-1.80L13.92-1.56L13.68 0L1.72 0L1.84-7.76L1.72-25.56L3.84-25.56L3.72-7.88L3.80-1.80L13.72-1.80Z M37.12-25.56L37.04-7.88L37.08 0L35.04 0L35.12-7.76L35.12-12.04L20.12-12.04L20.12-7.88L20.20 0L18.12 0L18.20-7.76L18.12-25.56L20.20-25.56L20.16-13.84L35.08-13.84L35.04-25.56L37.12-25.56Z M12.72 6.24Q14.68 6.24 16.48 6.78Q18.28 7.32 19.72 8.36L19.72 8.36L19.28 10.24L18.96 10.28Q16.16 8.04 12.64 8.04L12.64 8.04Q8.36 8.04 6.10 10.92Q3.84 13.80 3.84 19.24L3.84 19.24Q3.84 24.68 6.04 27.54Q8.24 30.40 12.36 30.40L12.36 30.40Q14.20 30.40 16 29.74Q17.80 29.08 19.36 27.88L19.36 27.88L19.68 28L19.52 29.96Q16.08 32.24 12.24 32.24L12.24 32.24Q7.20 32.24 4.46 28.90Q1.72 25.56 1.72 19.36L1.72 19.36Q1.72 13.08 4.58 9.66Q7.44 6.24 12.72 6.24L12.72 6.24Z M32.04 12Q36.28 12 38.56 14.54Q40.84 17.08 40.84 21.72L40.84 21.72Q40.84 26.76 38.42 29.48Q36 32.20 31.56 32.20L31.56 32.20Q27.32 32.20 25.02 29.60Q22.72 27 22.72 22.24L22.72 22.24Q22.72 17.32 25.14 14.66Q27.56 12 32.04 12L32.04 12ZM31.88 13.72Q24.76 13.72 24.76 22L24.76 22Q24.76 30.52 31.64 30.52L31.64 30.52Q35.16 30.52 37 28.40Q38.84 26.28 38.84 22.04L38.84 22.04Q38.84 13.72 31.88 13.72L31.88 13.72Z M62.64 12.16L62.56 26.28L62.56 32L60.48 32L48.80 15.48L48.64 15.48L48.60 25.60L48.64 32L46.80 32L46.88 26.16L46.84 12.20L48.92 12.20L60.60 28.76L60.80 28.76L60.80 12.28L62.64 12.16Z M86.32 12.16L86.24 26.28L86.24 32L84.16 32L72.48 15.48L72.32 15.48L72.28 25.60L72.32 32L70.48 32L70.56 26.16L70.52 12.20L72.60 12.20L84.28 28.76L84.48 28.76L84.48 12.28L86.32 12.16Z M105.48 30.28L105.68 30.48L105.44 32L94.16 32L94.24 26L94.16 12.20L105.44 12.20L105.60 12.44L105.40 13.96L100.48 13.84L96.16 13.84L96.12 20.96L100.20 21L103.72 20.92L103.84 21.16L103.68 22.72L100.04 22.64L96.08 22.68L96.08 25.84L96.12 30.36L100.20 30.36L105.48 30.28Z M117.72 12.04Q121.00 12.04 123.48 13.60L123.48 13.60L123.08 15.40L122.76 15.48Q121.72 14.64 120.38 14.18Q119.04 13.72 117.56 13.72L117.56 13.72Q114.16 13.72 112.38 15.84Q110.60 17.96 110.60 22.08L110.60 22.08Q110.60 26.20 112.34 28.36Q114.08 30.52 117.36 30.52L117.36 30.52Q118.84 30.52 120.34 30Q121.84 29.48 123.08 28.56L123.08 28.56L123.36 28.68L123.20 30.48Q120.44 32.20 117.32 32.20L117.32 32.20Q113.08 32.20 110.80 29.60Q108.52 27 108.52 22.20L108.52 22.20Q108.52 17.32 110.92 14.68Q113.32 12.04 117.72 12.04L117.72 12.04Z M140.80 12.20L140.92 12.44L140.76 14.04L137.20 13.88L134.72 13.88L134.64 25.84L134.72 32L132.76 32L132.80 26L132.76 13.88L130.32 13.88L126.68 14.04L126.52 13.84L126.68 12.20L140.80 12.20Z M148.28 12.20L148.20 25.84L148.24 32L146.28 32L146.36 26L146.28 12.20L148.28 12.20Z M162.88 12Q167.12 12 169.40 14.54Q171.68 17.08 171.68 21.72L171.68 21.72Q171.68 26.76 169.26 29.48Q166.84 32.20 162.40 32.20L162.40 32.20Q158.16 32.20 155.86 29.60Q153.56 27 153.56 22.24L153.56 22.24Q153.56 17.32 155.98 14.66Q158.40 12 162.88 12L162.88 12ZM162.72 13.72Q155.60 13.72 155.60 22L155.60 22Q155.60 30.52 162.48 30.52L162.48 30.52Q166 30.52 167.84 28.40Q169.68 26.28 169.68 22.04L169.68 22.04Q169.68 13.72 162.72 13.72L162.72 13.72Z M193.48 12.16L193.40 26.28L193.40 32L191.32 32L179.64 15.48L179.48 15.48L179.44 25.60L179.48 32L177.64 32L177.72 26.16L177.68 12.20L179.76 12.20L191.44 28.76L191.64 28.76L191.64 12.28L193.48 12.16Z M206.60 12.08Q208.92 12.08 211.08 13L211.08 13L210.76 14.92L210.40 15Q208.40 13.64 206.40 13.64L206.40 13.64Q204.40 13.64 203.22 14.74Q202.04 15.84 202.04 17.20L202.04 17.20Q202.04 18.52 203.10 19.32Q204.16 20.12 206.32 21.04L206.32 21.04Q208.12 21.88 209.16 22.50Q210.20 23.12 210.96 24.14Q211.72 25.16 211.72 26.64L211.72 26.64Q211.72 28.12 210.90 29.38Q210.08 30.64 208.56 31.40Q207.04 32.16 205.04 32.16L205.04 32.16Q203.68 32.16 202.24 31.82Q200.80 31.48 199.60 30.80L199.60 30.80L199.80 28.76L200.08 28.64Q201.12 29.60 202.54 30.10Q203.96 30.60 205.24 30.60L205.24 30.60Q207.24 30.60 208.50 29.50Q209.76 28.40 209.76 26.92L209.76 26.92Q209.76 25.52 208.70 24.70Q207.64 23.88 205.40 22.84L205.40 22.84Q203.68 22.04 202.62 21.42Q201.56 20.80 200.82 19.80Q200.08 18.80 200.08 17.36L200.08 17.36Q200.08 15.88 200.90 14.68Q201.72 13.48 203.20 12.78Q204.68 12.08 206.60 12.08L206.60 12.08Z"/></g>
</svg>
</g><g opacity="1" transform="rotate(0 502.8961 422.432)">
<svg width="118.2903" height="106.136" x="502.8961" y="422.432" version="1.1" preserveAspectRatio="none" viewBox="5 9 69.0999984741211 62">
  <g transform="matrix(1 0 0 1 0 0)" class="aU4AVQF7bscolors-0"><g><path d="M30,54H10c-2.4,0-5-2.1-5-5c0-1.8,3-3.6,3.6-3.9l7.5-2.9c0.4-0.1,0.6-0.1,0.6-0.6c-0.8-1-3.4-4.3-3.4-7.1   c0-4.6,3.1-8.3,7-8.3c3.8,0,7,3.7,7,8.3c0,2.9-2.7,6.2-3.5,7.2c0,0.6,0,0.6,0.4,0.7l7.5,2.9l0.4,0.3c1.7,1.2,3,2.3,3,3.5l0,0.2   C34.7,50.8,33.3,54,30,54z M16.6,44.1l-7.3,2.9C8.5,47.3,7.1,48.6,7,49c0,1.6,1.7,3,3,3h20c2.1,0,2.8-2.4,3-3   c-0.2-0.4-1.6-1.4-2.1-1.8l-0.3-0.2l-7.1-2.7c-1.7-0.6-1.8-1.8-1.7-3.1l0-0.3l0.2-0.2c0.9-1,3.2-4,3.2-6.1c0-3.4-2.3-6.3-5-6.3   c-2.7,0-5,2.9-5,6.3c0,2.1,2.2,5.1,3.1,6.1l0.2,0.3l0,0.3C18.7,42.7,18.1,43.7,16.6,44.1z"></path></g><g><path d="M69,54H49c-2.4,0-5-2.1-5-5c0-1.8,3-3.6,3.6-3.9l7.5-2.9c0.4-0.1,0.6-0.1,0.6-0.6c-0.8-1-3.4-4.3-3.4-7.1   c0-4.6,3.1-8.3,7-8.3c3.8,0,7,3.7,7,8.3c0,2.9-2.7,6.2-3.5,7.2c0,0.6,0,0.6,0.4,0.7l7.5,2.9l0.4,0.3c1.7,1.2,3,2.3,3,3.5l0,0.2   C73.7,50.8,72.3,54,69,54z M55.6,44.1l-7.3,2.9c-0.9,0.4-2.3,1.6-2.4,2.1c0,1.6,1.7,3,3,3h20c2.1,0,2.8-2.4,3-3   c-0.2-0.4-1.6-1.4-2.1-1.8l-0.3-0.2l-7.1-2.7c-1.7-0.6-1.8-1.8-1.7-3.1l0-0.3l0.2-0.2c0.9-1,3.2-4,3.2-6.1c0-3.4-2.3-6.3-5-6.3   c-2.7,0-5,2.9-5,6.3c0,2.1,2.2,5.1,3.1,6.1l0.2,0.3l0,0.3C57.7,42.7,57.1,43.7,55.6,44.1z"></path></g><g><path d="M60.3,19.7C54.9,14.1,47.7,11,40,11c-7.2,0-14.1,2.7-19.3,7.7l-1.4-1.4C24.9,11.9,32.3,9,40,9   c8.3,0,16,3.3,21.7,9.3L60.3,19.7z"></path></g><g><polygon points="63,21 53,21 53,19 61,19 61,12 63,12  "></polygon></g><g><path d="M42,71c-8.3,0-16-3.3-21.7-9.3l1.4-1.4C27.1,65.9,34.3,69,42,69c7.2,0,14.1-2.7,19.3-7.7l1.4,1.4   C57.1,68.1,49.7,71,42,71z"></path></g><g><polygon points="21,68 19,68 19,59 29,59 29,61 21,61  "></polygon></g></g>
</svg>
</g></svg>